# xmcd CD database file
#
# Track frame offsets:
#	150
#	22394
#	43517
#	60587
#	75745
#	97182
#	116236
#	137273
#	156100
#	175515
#	199997
#	222525
#	231866
#
# Disc length: 3340 seconds
#
# Revision: 0
# Processed by: cddbd v1.5.2PL0 Copyright (c) Steve Scherf et al.
# Submitted via: CDex 1.51
#
DISCID=b80d0a0d
DTITLE=Eight Wheel drive - Better Days
DYEAR=2007
DGENRE=Blues
TTITLE0=Better Days
TTITLE1=Back To Memphis
TTITLE2=I Believe To My Soul
TTITLE3=Walking On Sunset
TTITLE4=Riding With The King
TTITLE5=Ain't That A Lotta Love
TTITLE6=Paint My Mailbox Blue
TTITLE7=Lilly's Daddy's Cadillac
TTITLE8=Milk Cow Boogie
TTITLE9=Louisiana 1927
TTITLE10=Blues As Blues Can Get
TTITLE11=Going down Slow
TTITLE12=Watch Your Step
EXTD=YEAR: 2007
EXTT0=
EXTT1=
EXTT2=
EXTT3=
EXTT4=
EXTT5=
EXTT6=
EXTT7=
EXTT8=
EXTT9=
EXTT10=
EXTT11=
EXTT12=
PLAYORDER=
